<svg xmlns="http://www.w3.org/2000/svg" aria-hidden="true" style="position:absolute;width:0;height:0;overflow:hidden">
  <defs>
    <symbol id="icon-arrow" viewBox="0 0 16 32">
      <path fill="#fff" d="m14.019 17.062-8.5 8.5a1.493 1.493 0 0 1-2.119 0L1.987 24.15a1.495 1.495 0 0 1 0-2.119l6.025-6.025-6.025-6.025a1.495 1.495 0 0 1 0-2.119l1.406-1.425a1.493 1.493 0 0 1 2.119 0l8.5 8.5c.594.588.594 1.538.006 2.125z" style="fill:var(--color1, #fff)"/>
    </symbol>
    <symbol id="icon-logo" viewBox="0 0 41 32">
      <path d="M38.196.197c-3.86.219-11.533 1.018-16.27 3.923-.327.2-.512.557-.512.929v25.676c0 .815.89 1.33 1.64.952 4.873-2.457 11.921-3.127 15.406-3.311 1.19-.063 2.115-1.018 2.115-2.163V2.363c.001-1.25-1.081-2.24-2.379-2.166zM18.649 4.12C13.913 1.216 6.24.417 2.38.197 1.082.124 0 1.114 0 2.363v23.84c0 1.146.925 2.101 2.115 2.163 3.486.183 10.538.855 15.411 3.313.748.378 1.635-.137 1.635-.95V5.035c0-.373-.185-.716-.512-.917z"/>
    </symbol>
    <symbol id="icon-linkedin" viewBox="0 0 32 32">
      <path d="M7.25 32H.687V10.901H7.25V32zM3.933 8.079c-2.046 0-3.74-1.764-3.74-3.881 0-2.046 1.694-3.74 3.74-3.74 2.117 0 3.81 1.694 3.81 3.74 0 2.117-1.694 3.881-3.81 3.881zM31.736 32h-6.492V21.768c0-2.47-.071-5.575-3.458-5.575s-3.881 2.611-3.881 5.363V32h-6.562V10.901h6.28v2.893h.07c.917-1.623 3.034-3.387 6.21-3.387 6.633 0 7.903 4.375 7.903 10.02V32h-.071z"/>
    </symbol>
    <symbol id="icon-youtube" viewBox="0 0 45 32">
      <path d="M43.664 5.831c.972 3.403.972 10.695.972 10.695s0 7.211-.972 10.694c-.486 1.944-2.025 3.403-3.889 3.889C36.291 32 22.518 32 22.518 32S8.664 32 5.18 31.109c-1.863-.486-3.403-1.944-3.889-3.889C.319 23.736.319 16.526.319 16.526s0-7.292.972-10.694c.486-1.944 2.025-3.484 3.889-3.97C8.664.89 22.518.89 22.518.89s13.773 0 17.257.972c1.863.486 3.403 2.025 3.889 3.97zM17.982 23.088l11.505-6.563-11.505-6.563v13.125z"/>
    </symbol>
    <symbol id="icon-twitter" viewBox="0 0 37 32">
      <path d="M33.469 8.283v1.021c0 10.135-7.656 21.729-21.729 21.729-4.375 0-8.385-1.24-11.74-3.427.583.073 1.167.146 1.823.146 3.573 0 6.854-1.24 9.479-3.281-3.354-.073-6.198-2.26-7.146-5.323.51.073.948.146 1.458.146.656 0 1.385-.146 1.969-.292-3.5-.729-6.125-3.792-6.125-7.511v-.073c1.021.583 2.26.875 3.5.948a7.533 7.533 0 0 1-3.427-6.344c0-1.458.365-2.771 1.021-3.865a22.215 22.215 0 0 0 15.823 8.021 7.184 7.184 0 0 1-.219-1.75A7.655 7.655 0 0 1 25.812.772c2.188 0 4.156.875 5.615 2.406a16.177 16.177 0 0 0 4.812-1.896c-.583 1.823-1.75 3.281-3.354 4.229a14.335 14.335 0 0 0 4.375-1.167c-1.021 1.531-2.333 2.844-3.792 3.938z"/>
    </symbol>
    <symbol id="icon-facebook" viewBox="0 0 32 32">
      <path d="M31.5 16.343c0 7.75-5.688 14.188-13.125 15.312V20.843H22l.688-4.5h-4.313v-2.875c0-1.25.625-2.438 2.562-2.438h1.937V7.217s-1.75-.313-3.5-.313c-3.5 0-5.812 2.188-5.812 6.063v3.375H9.624v4.5h3.938v10.812C6.124 30.529.499 24.092.499 16.342c0-8.563 6.938-15.5 15.5-15.5s15.5 6.938 15.5 15.5z"/>
    </symbol>
  </defs>
</svg>
